<svg height='100px' width='100px'  fill="#000000" xmlns:dc="http://purl.org/dc/elements/1.1/" xmlns:cc="http://creativecommons.org/ns#" xmlns:rdf="http://www.w3.org/1999/02/22-rdf-syntax-ns#" xmlns:svg="http://www.w3.org/2000/svg" xmlns="http://www.w3.org/2000/svg" xmlns:sodipodi="http://sodipodi.sourceforge.net/DTD/sodipodi-0.dtd" xmlns:inkscape="http://www.inkscape.org/namespaces/inkscape" version="1.1" x="0px" y="0px" viewBox="0 0 100 100"><g transform="translate(0,-952.36218)"><path style="text-indent:0;text-transform:none;direction:ltr;block-progression:tb;baseline-shift:baseline;color:#000000;enable-background:accumulate;" d="m 5.8125081,969.36217 c -0.98317,0.0927 -1.81676,1.01248 -1.8125,2 l 0,52.00003 c 1e-4,1.0472 0.95283,1.9999 2,2 l 59.1562499,0 c 2.38124,5.8552 8.15031,10 14.84375,10 8.81287,0 16,-7.1871 16,-16 0,-6.6935 -4.14476,-12.4625 -10,-14.8438 l 0,-33.15623 c -10e-5,-1.04717 -0.95283,-1.9999 -2,-2 l -78.1874999,0 z m 5.5624999,4 67.25,0 -33.625,29.31253 -33.625,-29.31253 z m -3.3749999,2.375 24.3749999,21.28125 -24.3749999,21.84378 0,-43.12503 z m 73.9999999,0 0,27.78123 c -0.65894,-0.083 -1.31908,-0.1562 -2,-0.1562 -4.1075,0 -7.84939,1.5655 -10.6875,4.125 l -11.6875,-10.46878 24.375,-21.28125 z m -46.5625,23.90625 8.25,7.21878 a 2.0001999,2.0001999 0 0 0 2.625,0 l 8.25,-7.21878 12.125,10.87498 c -1.68982,2.5358 -2.6875,5.5791 -2.6875,8.8438 0,0.6809 0.073,1.341 0.15625,2 l -52.9375,0 24.21875,-21.71878 z m 44.5625,7.71878 c 6.65111,0 12,5.3489 12,12 0,6.6511 -5.34889,12 -12,12 -6.65111,0 -12,-5.3489 -12,-12 0,-6.6511 5.34889,-12 12,-12 z m 0,3 c -1.1047,0 -2,0.8954 -2,2 l 0,9.1875 -1.59375,-1.5938 c -0.78112,-0.7811 -2.03136,-0.7811 -2.8125,0 -0.78114,0.781 -0.79674,2.008 0,2.8125 1.62691,1.637 3.33311,3.4237 4.96875,4.9375 0.36508,0.3909 0.86039,0.6563 1.4375,0.6563 0.57711,0 1.07243,-0.2654 1.4375,-0.6563 1.66486,-1.4837 3.30646,-3.3364 4.96875,-4.9375 0.80455,-0.8045 0.78114,-2.0315 0,-2.8125 -0.78114,-0.7811 -2.03138,-0.7811 -2.8125,0 l -1.59375,1.5938 0,-9.1875 c 0,-1.1046 -0.8953,-2 -2,-2 z" fill="#000000" fill-opacity="1" stroke="none" marker="none" visibility="visible" display="inline" overflow="visible"></path></g></svg>